<svg width="17" height="14" viewBox="0 0 17 14" fill="none" xmlns="http://www.w3.org/2000/svg">
    <path d="M15.2812 1.03125C15.0104 0.958333 14.7552 0.989583 14.5156 1.125C14.276 1.26042
        14.1146 1.45833 14.0312 1.71875L13.9531 2H4.625L4.5 0.875C4.46875 0.625 4.35417 0.416667
        4.15625 0.25C3.96875 0.0833333 3.75 0 3.5 0H1C0.71875 0 0.479167 0.0989583 0.28125 0.296875C0.09375
        0.484375 0 0.71875 0 1C0 1.28125 0.09375 1.52083 0.28125 1.71875C0.479167 1.90625 0.71875 2 1 2H2.625L3.5
        9.125C3.53125 9.375 3.64062 9.58333 3.82812 9.75C4.02604 9.91667 4.25 10 4.5 10H13C13.2188 10 13.4167
        9.93229 13.5938 9.79688C13.7812 9.66146 13.9062 9.48958 13.9688 9.28125L15.9688 2.28125C16.0417 2.01042
        16.0104 1.75521 15.875 1.51562C15.7396 1.27604 15.5417 1.11458 15.2812 1.03125ZM8 6V5H10V6H8ZM10
        7V8H8V7H10ZM8 4V3H10V4H8ZM4.75 3H7V4H4.875L4.75 3ZM5 5H7V6H5.125L5 5ZM5.25 7H7V8H5.375L5.25 7ZM12.25
        8H11V7H12.5312L12.25 8ZM12.8125 6H11V5H13.1094L12.8125 6ZM13.3906 4H11V3H13.6719L13.3906 4ZM4 12.5C4
        12.0833 4.14583 11.7292 4.4375 11.4375C4.72917 11.1458 5.08333 11 5.5 11C5.91667 11 6.27083 11.1458 6.5625
        11.4375C6.85417 11.7292 7 12.0833 7 12.5C7 12.9167 6.85417 13.2708 6.5625 13.5625C6.27083 13.8542 5.91667
        14 5.5 14C5.08333 14 4.72917 13.8542 4.4375 13.5625C4.14583 13.2708 4 12.9167 4 12.5ZM10 12.5C10 12.0833 10.1458
        11.7292 10.4375 11.4375C10.7292 11.1458 11.0833 11 11.5 11C11.9167 11 12.2708 11.1458 12.5625 11.4375C12.8542 11.7292
        13 12.0833 13 12.5C13 12.9167 12.8542 13.2708 12.5625 13.5625C12.2708 13.8542 11.9167 14 11.5 14C11.0833 14 10.7292
        13.8542 10.4375 13.5625C10.1458 13.2708 10 12.9167 10 12.5Z" fill="white"
    />
</svg>