<svg width="10" height="10" viewBox="0 0 10 10" fill="none" xmlns="http://www.w3.org/2000/svg">
<path d="M5.91616 5.00816L9.80997 1.11425C10.0634 0.860963 10.0634 0.451439 9.80997 0.198156C9.55669 -0.0551268 9.14716 -0.0551268 8.89388 0.198156L4.99995 4.09207L1.10614 0.198156C0.852742 -0.0551268 0.443335 -0.0551268 0.190052 0.198156C-0.0633506 0.451439 -0.0633506 0.860963 0.190052 1.11425L4.08386 5.00816L0.190052 8.90207C-0.0633506 9.15536 -0.0633506 9.56488 0.190052 9.81816C0.316278 9.94451 0.482247 10.008 0.648098 10.008C0.813948 10.008 0.979799 9.94451 1.10614 9.81816L4.99995 5.92425L8.89388 9.81816C9.02022 9.94451 9.18607 10.008 9.35192 10.008C9.51777 10.008 9.68362 9.94451 9.80997 9.81816C10.0634 9.56488 10.0634 9.15536 9.80997 8.90207L5.91616 5.00816Z" fill="#4B4B4B"/>
</svg>
