<svg width="12" height="12" viewBox="0 0 12 12" fill="none" xmlns="http://www.w3.org/2000/svg">
<path fill-rule="evenodd" clip-rule="evenodd" d="M2.33968 8.49113L7.19826 3.63254L8.36726 4.80213L3.50868 9.66071L1.98851 10.0107L2.33968 8.49113ZM8.9261 1.90471C9.04276 1.78804 9.17868 1.77054 9.24926 1.77054C9.31985 1.77054 9.45634 1.78804 9.57243 1.90471L10.0951 2.42738C10.2118 2.54404 10.2293 2.67996 10.2293 2.75054C10.2293 2.82113 10.2118 2.95763 10.0951 3.07371L9.08884 4.07996L7.91984 2.91096L8.9261 1.90471ZM1.20276 11.2404L4.02376 10.5894L10.8173 3.79588C11.3942 3.21838 11.3942 2.28271 10.8173 1.70579L10.2946 1.18313C10.0058 0.894377 9.62784 0.74971 9.24926 0.74971C8.87126 0.74971 8.49268 0.894377 8.20451 1.18313L1.41101 7.97663L0.760011 10.797C0.705178 11.0345 0.888928 11.2497 1.11818 11.2497C1.14618 11.2497 1.17418 11.2468 1.20276 11.2404Z" fill="#4B4B4B"/>
</svg>
